# xmcd CD database file
#
# Track frame offsets:
#	182
#	107237
#	200825
#
# Disc length: 4576 seconds
#
# Revision: 0
# Processed by: cddbd v1.4PL0 Copyright (c) Steve Scherf et al.
# Submitted via: CDex 1.50Beta7
#
DISCID=2811de03
DTITLE=Billy Harper - On Tour Vol. 3
DYEAR=1900
DGENRE=Jazz
TTITLE0=Soran-Bushi-B.H.
TTITLE1=Call of the Wild and Peaceful Heart
TTITLE2=Cry of Hunger
EXTD=
EXTT0=
EXTT1=
EXTT2=
PLAYORDER=
